HIERARCHY
ROOT Hips
{
  OFFSET 5.84602e-005 68.8428 3.50346
  CHANNELS 6 Xposition Yposition Zposition Zrotation Xrotation Yrotation
  JOINT Spine
  {
    OFFSET 0 8.597 -4.6522
    CHANNELS 3 Zrotation Xrotation Yrotation
    JOINT Spine1
    {
      OFFSET 0 7.8454 0.4098
      CHANNELS 3 Zrotation Xrotation Yrotation
      JOINT Spine2
      {
        OFFSET 0 9.7078 -2.1609
        CHANNELS 3 Zrotation Xrotation Yrotation
        JOINT Neck
        {
          OFFSET 0 21.8761 -0.4549
          CHANNELS 3 Zrotation Xrotation Yrotation
          JOINT Head
          {
            OFFSET 0 12.3537 3.3602
            CHANNELS 3 Zrotation Xrotation Yrotation
            End Site
            {
              OFFSET 0.0001 18.9506 0.5657
            }
          }
        }
        JOINT LeftShoulder
        {
          OFFSET 2.2086 21.1115 7.2329
          CHANNELS 3 Zrotation Xrotation Yrotation
          JOINT LeftArm
          {
            OFFSET 13.1193 3.0282 -4.8998
            CHANNELS 3 Zrotation Xrotation Yrotation
            JOINT LeftForeArm
            {
              OFFSET 27.4081 -0.0973053 -0.2375
              CHANNELS 3 Zrotation Xrotation Yrotation
              JOINT LeftHand
              {
                OFFSET 22.8641 0.0662994 -0.1369
                CHANNELS 3 Zrotation Xrotation Yrotation
                JOINT LeftHandIndex1
                {
                  OFFSET 8.8614 0.775009 2.4612
                  CHANNELS 3 Zrotation Xrotation Yrotation
                  JOINT LeftHandIndex2
                  {
                    OFFSET 3.3146 -0.808304 0.5841
                    CHANNELS 3 Zrotation Xrotation Yrotation
                    JOINT LeftHandIndex3
                    {
                      OFFSET 2.2628 -0.552002 0.3989
                      CHANNELS 3 Zrotation Xrotation Yrotation
                      End Site
                      {
                        OFFSET 1.6102 -0.4807 0.2612
                      }
                    }
                  }
                }
                JOINT LeftHandMiddle1
                {
                  OFFSET 8.9937 0.895004 0.2143
                  CHANNELS 3 Zrotation Xrotation Yrotation
                  JOINT LeftHandMiddle2
                  {
                    OFFSET 4.0984 0.0113983 -0.0242
                    CHANNELS 3 Zrotation Xrotation Yrotation
                    JOINT LeftHandMiddle3
                    {
                      OFFSET 2.2716 0.00689697 -0.0138001
                      CHANNELS 3 Zrotation Xrotation Yrotation
                      End Site
                      {
                        OFFSET 2.0404 -0.1441 0.0027
                      }
                    }
                  }
                }
                JOINT LeftHandRing1
                {
                  OFFSET 8.5234 0.597198 -2.0164
                  CHANNELS 3 Zrotation Xrotation Yrotation
                  JOINT LeftHandRing2
                  {
                    OFFSET 3.7188 -0.188293 -0.2328
                    CHANNELS 3 Zrotation Xrotation Yrotation
                    JOINT LeftHandRing3
                    {
                      OFFSET 2.1191 -0.106598 -0.1332
                      CHANNELS 3 Zrotation Xrotation Yrotation
                      End Site
                      {
                        OFFSET 1.8737 -0.2304 -0.0886
                      }
                    }
                  }
                }
                JOINT LeftHandPinky1
                {
                  OFFSET 7.9094 -0.601089 -3.4825
                  CHANNELS 3 Zrotation Xrotation Yrotation
                  JOINT LeftHandPinky2
                  {
                    OFFSET 2.2874 -0.477005 -0.6314
                    CHANNELS 3 Zrotation Xrotation Yrotation
                    JOINT LeftHandPinky3
                    {
                      OFFSET 1.6774 -0.349396 -0.4633
                      CHANNELS 3 Zrotation Xrotation Yrotation
                      End Site
                      {
                        OFFSET 1.4888 -0.4091 -0.3416
                      }
                    }
                  }
                }
                JOINT LeftHandThumb1
                {
                  OFFSET 1.833 -1.3875 1.3896
                  CHANNELS 3 Zrotation Xrotation Yrotation
                  JOINT LeftHandThumb2
                  {
                    OFFSET 3.4129 -1.121 2.5732
                    CHANNELS 3 Zrotation Xrotation Yrotation
                    JOINT LeftHandThumb3
                    {
                      OFFSET 2.2474 -0.804199 1.6192
                      CHANNELS 3 Zrotation Xrotation Yrotation
                      End Site
                      {
                        OFFSET 1.6527 -0.5689 1.1317
                      }
                    }
                  }
                }
              }
            }
          }
        }
        JOINT RightShoulder
        {
          OFFSET -2.2086 21.1115 7.2329
          CHANNELS 3 Zrotation Xrotation Yrotation
          JOINT RightArm
          {
            OFFSET -13.1216 3.0287 -4.9007
            CHANNELS 3 Zrotation Xrotation Yrotation
            JOINT RightForeArm
            {
              OFFSET -27.4081 -0.0973053 -0.2375
              CHANNELS 3 Zrotation Xrotation Yrotation
              JOINT RightHand
              {
                OFFSET -22.8641 0.0664063 -0.1369
                CHANNELS 3 Zrotation Xrotation Yrotation
                JOINT RightHandIndex1
                {
                  OFFSET -8.8614 0.774994 2.4612
                  CHANNELS 3 Zrotation Xrotation Yrotation
                  JOINT RightHandIndex2
                  {
                    OFFSET -3.3146 -0.808304 0.5841
                    CHANNELS 3 Zrotation Xrotation Yrotation
                    JOINT RightHandIndex3
                    {
                      OFFSET -2.2628 -0.552002 0.3989
                      CHANNELS 3 Zrotation Xrotation Yrotation
                      End Site
                      {
                        OFFSET -1.6102 -0.4807 0.2612
                      }
                    }
                  }
                }
                JOINT RightHandMiddle1
                {
                  OFFSET -8.9937 0.894989 0.2143
                  CHANNELS 3 Zrotation Xrotation Yrotation
                  JOINT RightHandMiddle2
                  {
                    OFFSET -4.0984 0.0113983 -0.0242
                    CHANNELS 3 Zrotation Xrotation Yrotation
                    JOINT RightHandMiddle3
                    {
                      OFFSET -2.2716 0.00691223 -0.0138001
                      CHANNELS 3 Zrotation Xrotation Yrotation
                      End Site
                      {
                        OFFSET -2.0404 -0.1441 0.0027
                      }
                    }
                  }
                }
                JOINT RightHandRing1
                {
                  OFFSET -8.5234 0.597198 -2.0164
                  CHANNELS 3 Zrotation Xrotation Yrotation
                  JOINT RightHandRing2
                  {
                    OFFSET -3.7188 -0.188309 -0.2328
                    CHANNELS 3 Zrotation Xrotation Yrotation
                    JOINT RightHandRing3
                    {
                      OFFSET -2.1191 -0.106598 -0.1332
                      CHANNELS 3 Zrotation Xrotation Yrotation
                      End Site
                      {
                        OFFSET -1.8737 -0.2304 -0.0886
                      }
                    }
                  }
                }
                JOINT RightHandPinky1
                {
                  OFFSET -7.9094 -0.601105 -3.4825
                  CHANNELS 3 Zrotation Xrotation Yrotation
                  JOINT RightHandPinky2
                  {
                    OFFSET -2.2874 -0.477005 -0.6314
                    CHANNELS 3 Zrotation Xrotation Yrotation
                    JOINT RightHandPinky3
                    {
                      OFFSET -1.6774 -0.349396 -0.4633
                      CHANNELS 3 Zrotation Xrotation Yrotation
                      End Site
                      {
                        OFFSET -1.4888 -0.4091 -0.3416
                      }
                    }
                  }
                }
                JOINT RightHandThumb1
                {
                  OFFSET -1.833 -1.38751 1.3896
                  CHANNELS 3 Zrotation Xrotation Yrotation
                  JOINT RightHandThumb2
                  {
                    OFFSET -3.41299 -1.12099 2.5732
                    CHANNELS 3 Zrotation Xrotation Yrotation
                    JOINT RightHandThumb3
                    {
                      OFFSET -2.24741 -0.804108 1.6192
                      CHANNELS 3 Zrotation Xrotation Yrotation
                      End Site
                      {
                        OFFSET -1.6527 -0.5689 1.1317
                      }
                    }
                  }
                }
              }
            }
          }
        }
      }
    }
  }
  JOINT RightUpLeg
  {
    OFFSET -9.1966 3.8861 -0.7581
    CHANNELS 3 Zrotation Xrotation Yrotation
    JOINT RightLeg
    {
      OFFSET -0.7359 -41.0265 0
      CHANNELS 3 Zrotation Xrotation Yrotation
      JOINT RightFoot
      {
        OFFSET 0 -40.2855 0
        CHANNELS 3 Zrotation Xrotation Yrotation
        JOINT RightToeBase
        {
          OFFSET 0 -5.6122 11.7359
          CHANNELS 3 Zrotation Xrotation Yrotation
          End Site
          {
            OFFSET 0 0 7.8731
          }
        }
      }
    }
  }
  JOINT LeftUpLeg
  {
    OFFSET 9.1965 3.8864 -0.7581
    CHANNELS 3 Zrotation Xrotation Yrotation
    JOINT LeftLeg
    {
      OFFSET 0.7359 -41.0268 0
      CHANNELS 3 Zrotation Xrotation Yrotation
      JOINT LeftFoot
      {
        OFFSET 0 -40.2855 0
        CHANNELS 3 Zrotation Xrotation Yrotation
        JOINT LeftToeBase
        {
          OFFSET 0 -5.6122 11.7359
          CHANNELS 3 Zrotation Xrotation Yrotation
          End Site
          {
            OFFSET 0 0 7.8731
          }
        }
      }
    }
  }
}
MOTION
Frames:	5
Frame Time:	0.0333333
5.84602e-005 68.8428 3.50346 0 0 -0 0 0 -0 0 0 -0 0 0 -0 0 0 -0 0 0 -0 0 0 -0 0 0 -0 0 0 -0 0 0 -0 0 0 -0 0 0 -0 0 0 -0 0 0 -0 -0.0146107 -8.87603e-005 -2.63497e-007 2.99804e-018 -2.42657e-020 -1.42182e-022 0 0 -0 -0.0187562 -0.001176 5.858e-005 5.06224e-018 3.88251e-019 1.21329e-020 0 0 -0 -0.012269 -0.00324817 0.000675346 -1.74678e-018 3.88251e-019 -0 0 0 -0 0 0 -0 0 0 -0 0 0 -0 0 0 -0 0 0 -0 0 0 -0 0 0 -0 0 0 -0 0 0 -0 0 0 -0 0.0149955 -9.10982e-005 2.64101e-007 -9.69331e-018 1.21329e-020 -4.7394e-023 0 0 -0 0.0189956 -0.00119102 -5.96516e-005 -5.41541e-019 0 2.42657e-020 0 0 -0 0.0122698 -0.00324857 -0.000673756 -2.00796e-019 0 -1.94126e-019 0 0 -0 0 0 -0 0 0 -0 3.39842 1.33031 -0.0637918 -5.65207e-008 0.834868 -0.000436188 -3.39935 -2.16518 -0.0642563 -8.89002e-024 -1.18485e-023 -1.48106e-024 -3.39844 1.35642 0.0640283 -3.18788e-007 0.782166 -0.000588827 3.39931 -2.13858 0.0634662 1.1399e-023 0 -0 
-3.47426 2.0951 0.788815 0 0 -0 1.41378 1.07878 -5.30869 2.92202 2.02178 -10.6449 2.92202 2.02178 -10.6449 21.7658 -14.9139 5.86519 -0.00146791 -7.00064 -23.0033 -18.7939 2.51895 -30.632 -11.5597 5.19321 -51.8373 -16.6361 7.40467 -65.0124 7.47938 -2.59445 -24.6804 -1.59028e-015 -3.18055e-015 4.77083e-015 -3.18055e-015 -3.18055e-015 -0 8.82781e-032 3.18055e-015 -1.59028e-015 -1.59028e-015 -3.18055e-015 4.77083e-015 -0.0146712 -9.21579e-005 -7.32714e-007 1.59028e-015 3.18055e-015 -6.36111e-015 -1.59028e-015 -3.18055e-015 4.77083e-015 -0.0187949 -0.00118059 5.78825e-005 1.59028e-015 -6.36111e-015 -7.95139e-015 -1.59028e-015 -3.18055e-015 4.77083e-015 -0.0122623 -0.0032498 0.000674794 -1.59028e-015 -3.18055e-015 6.36111e-015 -1.59028e-015 -3.18055e-015 4.77083e-015 -3.18055e-015 -3.18055e-015 -0 8.82781e-032 3.18055e-015 -1.59028e-015 -10.1439 -2.53925 25.7568 -12.737 1.95398 -8.18478 2.14807 -6.29424 111.269 18.2763 -70.7875 -1.06683 -1.27709e-006 7.97392e-007 3.52354e-008 -3.18055e-015 3.18055e-015 1.59028e-015 3.18055e-015 7.15625e-015 3.18055e-015 -1.27709e-006 7.97392e-007 3.52354e-008 0.0149807 -8.6929e-005 7.08843e-007 -6.36111e-015 1.11319e-014 -0 -1.27709e-006 7.97392e-007 3.52354e-008 0.0190179 -0.00118675 -5.50769e-005 6.36111e-015 3.97569e-015 -3.18055e-015 -1.27709e-006 7.97392e-007 3.52354e-008 0.0122672 -0.00324498 -0.000684331 -3.18055e-015 0 1.59028e-015 -1.27709e-006 7.97392e-007 3.52354e-008 -3.18055e-015 3.18055e-015 1.59028e-015 3.18055e-015 7.15625e-015 3.18055e-015 -170.305 -77.2825 -172.268 4.06483 52.3167 -5.34605 -6.45007 20.3215 3.87963 -1.25172e-007 1.73605e-006 2.01075e-007 93.3033 -70.642 124.459 -44.9558 44.3805 35.5302 6.30632 21.424 -3.92016 -2.01962e-007 3.41739e-007 -7.54385e-007 
-3.47426 2.0951 0.788815 0 0 -0 1.41378 1.07878 -5.30869 2.92202 2.02178 -10.6449 2.92202 2.02178 -10.6449 21.5538 -14.8967 5.85246 -0.42414 -6.97159 -22.9224 -18.7939 2.51895 -30.632 -11.5597 5.19322 -51.8373 -16.5226 7.33165 -65.2285 7.47938 -2.59445 -24.6804 1.51234e-007 1.71236e-006 6.20761e-007 3.18055e-015 6.36111e-015 1.59028e-015 -1.51234e-007 -1.71236e-006 -6.20761e-007 1.51234e-007 1.71236e-006 6.20761e-007 -0.0146425 -8.95717e-005 -8.36454e-007 -1.59028e-015 -3.18055e-015 -3.18055e-015 1.51234e-007 1.71236e-006 6.20761e-007 -0.0186634 -0.00117294 5.72654e-005 -0 -3.18055e-015 -0 1.51234e-007 1.71236e-006 6.20761e-007 -0.0122808 -0.00325314 0.000678731 1.59028e-015 6.36111e-015 -9.54166e-015 1.51234e-007 1.71236e-006 6.20761e-007 3.18055e-015 6.36111e-015 1.59028e-015 -1.51234e-007 -1.71236e-006 -6.20761e-007 -10.1439 -2.53925 25.7568 -12.737 1.95398 -8.18478 2.14807 -6.29424 111.269 17.6394 -70.7016 -1.1993 4.33259e-006 -4.05739e-006 -1.15352e-006 -4.19499e-006 -1.37602e-007 2.16477e-006 3.18064e-006 -9.45546e-007 -1.37076e-006 4.33259e-006 -4.05739e-006 -1.15352e-006 0.015031 -9.0563e-005 -5.75243e-006 3.18047e-006 -9.45725e-007 -1.37064e-006 4.33259e-006 -4.05739e-006 -1.15352e-006 0.0190046 -0.0011953 -5.51358e-005 3.18041e-006 -9.45759e-007 -1.37064e-006 4.33259e-006 -4.05739e-006 -1.15352e-006 0.0122615 -0.00324584 -0.000673594 6.07695e-006 -2.05101e-007 1.97669e-006 4.33259e-006 -4.05739e-006 -1.15352e-006 -4.19499e-006 -1.37602e-007 2.16477e-006 3.18064e-006 -9.45546e-007 -1.37076e-006 -170.305 -77.2825 -172.268 4.06483 52.3167 -5.34605 -6.45007 20.3215 3.87963 -1.25172e-007 1.73605e-006 2.01075e-007 93.3033 -70.642 124.459 -44.9558 44.3805 35.5302 6.30632 21.424 -3.92016 -2.01962e-007 3.41739e-007 -7.54385e-007 
-3.47426 2.0951 0.788815 0 0 -0 1.41378 1.07878 -5.30869 2.92202 2.02178 -10.6449 2.92202 2.02178 -10.6449 21.3418 -14.8793 5.83976 -0.847188 -6.94311 -22.8411 -18.7939 2.51895 -30.632 -11.5597 5.19321 -51.8373 -16.4094 7.25818 -65.4445 7.47938 -2.59446 -24.6804 1.90833e-014 9.54166e-015 -1.59028e-014 2.22639e-014 0 -1.11319e-014 1.90833e-014 1.59028e-014 -1.27222e-014 1.90833e-014 9.54166e-015 -1.59028e-014 -0.0146043 -8.48326e-005 8.49009e-007 -4.41391e-031 3.18055e-015 7.95139e-015 1.90833e-014 9.54166e-015 -1.59028e-014 -0.0187107 -0.00117357 5.44083e-005 6.36111e-015 3.18055e-015 -3.18055e-015 1.90833e-014 9.54166e-015 -1.59028e-014 -0.0122739 -0.00325228 0.00067637 1.59028e-015 -1.27222e-014 -0 1.90833e-014 9.54166e-015 -1.59028e-014 2.22639e-014 0 -1.11319e-014 1.90833e-014 1.59028e-014 -1.27222e-014 -10.1439 -2.53925 25.7568 -12.737 1.95398 -8.18478 2.14807 -6.29424 111.269 17.0041 -70.615 -1.3287 -3.18012e-006 9.56971e-007 1.37556e-006 -4.07525e-006 -4.32262e-006 3.16033e-006 -3.18012e-006 9.56971e-007 1.37556e-006 -3.18012e-006 9.56971e-007 1.37556e-006 0.0149974 -8.7955e-005 7.39229e-006 -3.17995e-006 9.5715e-007 1.37544e-006 -3.18012e-006 9.56971e-007 1.37556e-006 0.0189632 -0.0011926 -5.40242e-005 -3.17989e-006 9.57184e-007 1.37543e-006 -3.18012e-006 9.56971e-007 1.37556e-006 0.0122325 -0.003245 -0.000673623 -3.17995e-006 9.57063e-007 1.37554e-006 -3.18012e-006 9.56971e-007 1.37556e-006 -4.07525e-006 -4.32262e-006 3.16033e-006 -3.18012e-006 9.56971e-007 1.37556e-006 -170.305 -77.2825 -172.268 4.06483 52.3167 -5.34605 -6.45007 20.3215 3.87963 -1.25172e-007 1.73605e-006 2.01075e-007 93.3033 -70.642 124.459 -44.9558 44.3805 35.5302 6.30632 21.424 -3.92016 -2.01962e-007 3.41739e-007 -7.54385e-007 
-3.47426 2.0951 0.788815 0 0 -0 1.41378 1.07878 -5.30869 2.92202 2.02178 -10.6449 2.92202 2.02178 -10.6449 21.1297 -14.862 5.82714 -1.27059 -6.91521 -22.7596 -18.7939 2.51895 -30.632 -11.5597 5.19321 -51.8373 -16.2964 7.18425 -65.6605 7.47938 -2.59445 -24.6804 -3.18055e-015 6.36111e-015 -7.95139e-015 6.29495e-007 1.76995e-006 2.31771e-007 1.25137e-007 1.69296e-006 6.71681e-007 -3.18055e-015 6.36111e-015 -7.95139e-015 -0.0146102 -9.51545e-005 -2.65328e-006 1.59028e-015 -6.36111e-015 7.95139e-015 -3.18055e-015 6.36111e-015 -7.95139e-015 -0.0186864 -0.00117053 5.77789e-005 -3.18055e-015 0 -6.36111e-015 -3.18055e-015 6.36111e-015 -7.95139e-015 -0.0123101 -0.00326292 0.000674987 3.18055e-015 3.18055e-015 4.77083e-015 -3.18055e-015 6.36111e-015 -7.95139e-015 6.29495e-007 1.76995e-006 2.31771e-007 1.25137e-007 1.69296e-006 6.71681e-007 -10.1439 -2.53925 25.7568 -12.737 1.95398 -8.18478 2.14807 -6.29424 111.269 16.3707 -70.5278 -1.45503 -0 0 3.18055e-015 -3.18055e-015 3.18055e-015 -1.59028e-015 -3.18055e-015 4.77083e-015 6.36111e-015 -0 0 3.18055e-015 0.0149398 -8.81004e-005 6.65594e-007 -3.18055e-015 5.56597e-015 1.59028e-015 -0 0 3.18055e-015 0.0189737 -0.00118599 -5.82225e-005 1.76556e-031 6.36111e-015 -1.59028e-015 -0 0 3.18055e-015 0.0122419 -0.00323943 -0.000672038 -6.36111e-015 -7.95139e-016 -0 -0 0 3.18055e-015 -3.18055e-015 3.18055e-015 -1.59028e-015 -3.18055e-015 4.77083e-015 6.36111e-015 -170.305 -77.2825 -172.268 4.06483 52.3167 -5.34605 -6.45007 20.3215 3.87963 -1.25172e-007 1.73605e-006 2.01075e-007 93.3033 -70.642 124.459 -44.9558 44.3805 35.5302 6.30632 21.424 -3.92016 -2.01962e-007 3.41739e-007 -7.54385e-007 
